####
#
# OBJ File Generated by Meshlab
#
####
# Object Obj6.obj
#
# Vertices: 8
# Faces: 12
#
####
vn 1.570796 -1.570796 -1.570796
v 750.000000 0.000000 0.000000
vn -1.517273 -1.164244 1.308997
v 0.000000 0.000000 120.000000
vn -1.517272 -1.164244 -1.308997
v 0.000000 0.000000 0.000000
vn 1.570796 -1.570796 1.570796
v 750.000000 0.000000 120.000000
vn 1.570796 1.570796 -1.570796
v 750.000000 250.000000 0.000000
vn 1.570796 1.570796 1.570796
v 750.000000 250.000000 120.000000
vn -1.517272 1.977348 1.832596
v 66.987297 250.000000 120.000000
vn -1.517273 1.977348 -1.832596
v 66.987297 250.000000 0.000000
# 8 vertices, 0 vertices normals

f 1//1 2//2 3//3
f 4//4 2//2 1//1
f 5//5 6//6 1//1
f 1//1 6//6 4//4
f 7//7 5//5 8//8
f 6//6 5//5 7//7
f 3//3 7//7 8//8
f 2//2 7//7 3//3
f 4//4 7//7 2//2
f 6//6 7//7 4//4
f 8//8 1//1 3//3
f 8//8 5//5 1//1
# 12 faces, 0 coords texture

# End of File
